<svg xmlns="http://www.w3.org/2000/svg" width="1280" height="720" viewBox="0 0 1280 720" role="img" aria-labelledby="title desc">
  <title id="title">Compare workflow</title>
  <desc id="desc">Four video variants are compared by overlaying their response curves, then the strongest timeline sections are used as editing references.</desc>
  <defs>
    <linearGradient id="panel" x1="0" x2="0" y1="0" y2="1">
      <stop offset="0" stop-color="#1d211b"/>
      <stop offset="1" stop-color="#11140f"/>
    </linearGradient>
    <linearGradient id="paper" x1="0" x2="1" y1="0" y2="1">
      <stop offset="0" stop-color="#fbf8ef"/>
      <stop offset="1" stop-color="#eee8dc"/>
    </linearGradient>
    <filter id="shadow" x="-12%" y="-18%" width="124%" height="136%">
      <feDropShadow dx="0" dy="18" stdDeviation="22" flood-color="#000000" flood-opacity="0.28"/>
    </filter>
    <pattern id="grid" width="32" height="32" patternUnits="userSpaceOnUse">
      <path d="M 32 0 L 0 0 0 32" fill="none" stroke="#fbf7ee" stroke-opacity="0.07" stroke-width="1"/>
    </pattern>
    <marker id="arrow" markerWidth="10" markerHeight="10" refX="8" refY="5" orient="auto">
      <path d="M1,1 L9,5 L1,9" fill="none" stroke="#f6f1e7" stroke-width="1.5" stroke-linecap="round" stroke-linejoin="round"/>
    </marker>
  </defs>

  <rect width="1280" height="720" rx="42" fill="#11140f"/>
  <rect width="1280" height="720" fill="url(#grid)"/>

  <g transform="translate(64 56)">
    <text x="0" y="0" fill="#f7f1e7" font-family="Manrope, Inter, Arial, sans-serif" font-size="44" font-weight="700" letter-spacing="-2">Workflow A: compare 2-4 versions</text>
    <text x="0" y="42" fill="#c9c1b4" font-family="Manrope, Inter, Arial, sans-serif" font-size="20">Use the graph as the editing map: keep the strongest section from each version, then build the next cut.</text>
  </g>

  <g transform="translate(64 140)" filter="url(#shadow)">
    <rect x="0" y="0" width="1152" height="500" rx="34" fill="url(#panel)" stroke="#f6f1e7" stroke-opacity="0.12"/>
    <rect x="34" y="36" width="1084" height="240" rx="24" fill="#292d26" stroke="#f6f1e7" stroke-opacity="0.13"/>
    <rect x="34" y="36" width="1084" height="240" rx="24" fill="url(#grid)" opacity="0.85"/>

    <line x1="78" y1="236" x2="1076" y2="236" stroke="#f6f1e7" stroke-opacity="0.54" stroke-width="1.4" marker-end="url(#arrow)"/>
    <line x1="78" y1="236" x2="78" y2="68" stroke="#f6f1e7" stroke-opacity="0.54" stroke-width="1.4" marker-end="url(#arrow)"/>
    <text x="54" y="240" fill="#d8d0c4" font-family="Manrope, Inter, Arial, sans-serif" font-size="13">0</text>
    <text x="48" y="157" fill="#d8d0c4" font-family="Manrope, Inter, Arial, sans-serif" font-size="13">50</text>
    <text x="40" y="78" fill="#d8d0c4" font-family="Manrope, Inter, Arial, sans-serif" font-size="13">100</text>

    <polyline points="92,112 170,82 250,74 330,86 410,120 490,152 570,176 650,190 730,178 810,160 890,186 970,212 1060,224" fill="none" stroke="#c69ab8" stroke-width="5" stroke-linecap="round" stroke-linejoin="round" opacity="0.92"/>
    <polyline points="92,214 170,190 250,150 330,102 410,72 490,82 570,96 650,86 730,104 810,130 890,176 970,198 1060,214" fill="none" stroke="#9fc4a3" stroke-width="5" stroke-linecap="round" stroke-linejoin="round" opacity="0.92"/>
    <polyline points="92,178 170,130 250,104 330,96 410,118 490,154 570,198 650,212 730,190 810,150 890,88 970,78 1060,132" fill="none" stroke="#d9b184" stroke-width="5" stroke-linecap="round" stroke-linejoin="round" opacity="0.92"/>
    <polyline points="92,226 170,220 250,188 330,144 410,104 490,78 570,82 650,110 730,154 810,198 890,222 970,170 1060,92" fill="none" stroke="#95a4d3" stroke-width="5" stroke-linecap="round" stroke-linejoin="round" opacity="0.92"/>

    <polyline points="92,112 170,82 250,74 330,86 410,72 490,78 570,82 650,86 730,104 810,130 890,88 970,78 1060,92" fill="none" stroke="#f6f1e7" stroke-width="12" stroke-linecap="round" stroke-linejoin="round" opacity="0.9"/>
    <polyline points="92,112 170,82 250,74 330,86 410,72 490,78 570,82 650,86 730,104 810,130 890,88 970,78 1060,92" fill="none" stroke="#fff9ed" stroke-width="4" stroke-linecap="round" stroke-linejoin="round"/>
    <text x="790" y="70" fill="#f7f1e7" font-family="Manrope, Inter, Arial, sans-serif" font-size="16" font-weight="700">Follow the top edge</text>
    <text x="790" y="94" fill="#c9c1b4" font-family="Manrope, Inter, Arial, sans-serif" font-size="14">Borrow the strongest moment</text>
    <text x="790" y="114" fill="#c9c1b4" font-family="Manrope, Inter, Arial, sans-serif" font-size="14">from whichever curve is highest.</text>

    <g transform="translate(34 318)">
      <g>
        <rect width="245" height="128" rx="22" fill="#292d26" stroke="#f6f1e7" stroke-opacity="0.14"/>
        <circle cx="32" cy="32" r="8" fill="#c69ab8"/>
        <text x="52" y="38" fill="#f7f1e7" font-family="Manrope, Inter, Arial, sans-serif" font-size="18" font-weight="700">Version 1</text>
        <text x="24" y="76" fill="#c9c1b4" font-family="Manrope, Inter, Arial, sans-serif" font-size="15">Best opening hook</text>
      </g>
      <g transform="translate(275 0)">
        <rect width="245" height="128" rx="22" fill="#292d26" stroke="#f6f1e7" stroke-opacity="0.14"/>
        <circle cx="32" cy="32" r="8" fill="#9fc4a3"/>
        <text x="52" y="38" fill="#f7f1e7" font-family="Manrope, Inter, Arial, sans-serif" font-size="18" font-weight="700">Version 2</text>
        <text x="24" y="76" fill="#c9c1b4" font-family="Manrope, Inter, Arial, sans-serif" font-size="15">Strong middle hold</text>
      </g>
      <g transform="translate(550 0)">
        <rect width="245" height="128" rx="22" fill="#292d26" stroke="#f6f1e7" stroke-opacity="0.14"/>
        <circle cx="32" cy="32" r="8" fill="#d9b184"/>
        <text x="52" y="38" fill="#f7f1e7" font-family="Manrope, Inter, Arial, sans-serif" font-size="18" font-weight="700">Version 3</text>
        <text x="24" y="76" fill="#c9c1b4" font-family="Manrope, Inter, Arial, sans-serif" font-size="15">Best late payoff</text>
      </g>
      <g transform="translate(825 0)">
        <rect width="245" height="128" rx="22" fill="#292d26" stroke="#f6f1e7" stroke-opacity="0.14"/>
        <circle cx="32" cy="32" r="8" fill="#95a4d3"/>
        <text x="52" y="38" fill="#f7f1e7" font-family="Manrope, Inter, Arial, sans-serif" font-size="18" font-weight="700">Version 4</text>
        <text x="24" y="76" fill="#c9c1b4" font-family="Manrope, Inter, Arial, sans-serif" font-size="15">Final recovery spike</text>
      </g>
    </g>
  </g>

  <g transform="translate(64 674)">
    <text x="0" y="0" fill="#c9c1b4" font-family="Manrope, Inter, Arial, sans-serif" font-size="17">Upload variants of the same creative, compare curves, cut from the strongest sections, then re-test the new edit.</text>
  </g>
</svg>

