<svg xmlns="http://www.w3.org/2000/svg" width="1280" height="720" viewBox="0 0 1280 720" role="img" aria-labelledby="title desc">
  <title id="title">Solo workflow</title>
  <desc id="desc">A single video curve is inspected for dips, then the matching moments are trimmed, sped up, reframed, or reinforced.</desc>
  <defs>
    <linearGradient id="panel" x1="0" x2="0" y1="0" y2="1">
      <stop offset="0" stop-color="#1d211b"/>
      <stop offset="1" stop-color="#11140f"/>
    </linearGradient>
    <filter id="shadow" x="-12%" y="-18%" width="124%" height="136%">
      <feDropShadow dx="0" dy="18" stdDeviation="22" flood-color="#000000" flood-opacity="0.28"/>
    </filter>
    <pattern id="darkGrid" width="32" height="32" patternUnits="userSpaceOnUse">
      <path d="M 32 0 L 0 0 0 32" fill="none" stroke="#fbf7ee" stroke-opacity="0.08" stroke-width="1"/>
    </pattern>
    <marker id="arrow" markerWidth="10" markerHeight="10" refX="8" refY="5" orient="auto">
      <path d="M1,1 L9,5 L1,9" fill="none" stroke="#f6f1e7" stroke-width="1.5" stroke-linecap="round" stroke-linejoin="round"/>
    </marker>
  </defs>

  <rect width="1280" height="720" rx="42" fill="#11140f"/>
  <rect width="1280" height="720" fill="url(#darkGrid)"/>

  <g transform="translate(64 58)">
    <text x="0" y="0" fill="#f7f1e7" font-family="Manrope, Inter, Arial, sans-serif" font-size="44" font-weight="700" letter-spacing="-2">Workflow B: improve one video</text>
    <text x="0" y="42" fill="#c9c1b4" font-family="Manrope, Inter, Arial, sans-serif" font-size="20">The graph is the main tool. Use every dip as a timestamp for editing decisions.</text>
  </g>

  <g transform="translate(64 138)" filter="url(#shadow)">
    <rect x="0" y="0" width="720" height="468" rx="34" fill="url(#panel)" stroke="#f6f1e7" stroke-opacity="0.12"/>
    <text x="38" y="58" fill="#f7f1e7" font-family="Manrope, Inter, Arial, sans-serif" font-size="24" font-weight="700">Predicted response over time</text>
    <rect x="38" y="92" width="644" height="240" rx="22" fill="#292d26"/>
    <rect x="38" y="92" width="644" height="240" rx="22" fill="url(#darkGrid)"/>

    <line x1="76" y1="292" x2="644" y2="292" stroke="#f6f1e7" stroke-opacity="0.55" stroke-width="1.5" marker-end="url(#arrow)"/>
    <line x1="76" y1="292" x2="76" y2="124" stroke="#f6f1e7" stroke-opacity="0.55" stroke-width="1.5" marker-end="url(#arrow)"/>
    <text x="54" y="296" fill="#d8d0c4" font-family="Manrope, Inter, Arial, sans-serif" font-size="13">0</text>
    <text x="48" y="212" fill="#d8d0c4" font-family="Manrope, Inter, Arial, sans-serif" font-size="13">50</text>
    <text x="40" y="132" fill="#d8d0c4" font-family="Manrope, Inter, Arial, sans-serif" font-size="13">100</text>
    <rect x="468" y="120" width="66" height="172" rx="8" fill="#ef6f5a" opacity="0.12"/>
    <line x1="468" y1="118" x2="468" y2="292" stroke="#ef6f5a" stroke-width="3" stroke-linecap="round"/>
    <line x1="534" y1="118" x2="534" y2="292" stroke="#ef6f5a" stroke-width="3" stroke-linecap="round"/>
    <line x1="468" y1="278" x2="534" y2="278" stroke="#ef6f5a" stroke-width="4" stroke-linecap="round"/>
    <path d="M468,278 L478,272 M468,278 L478,284" fill="none" stroke="#ef6f5a" stroke-width="3" stroke-linecap="round"/>
    <path d="M534,278 L524,272 M534,278 L524,284" fill="none" stroke="#ef6f5a" stroke-width="3" stroke-linecap="round"/>
    <polyline points="88,250 142,222 196,178 248,146 304,132 358,142 414,148 468,178 500,286 534,172 574,214 630,288" fill="none" stroke="#9fc4a3" stroke-width="6" stroke-linecap="round" stroke-linejoin="round"/>

    <g transform="translate(38 366)">
      <rect width="152" height="70" rx="18" fill="#292d26" stroke="#f6f1e7" stroke-opacity="0.14"/>
      <text x="20" y="30" fill="#f7f1e7" font-family="Manrope, Inter, Arial, sans-serif" font-size="15" font-weight="700">Trim</text>
      <text x="20" y="52" fill="#c9c1b4" font-family="Manrope, Inter, Arial, sans-serif" font-size="13">remove dead time</text>
      <rect x="172" width="152" height="70" rx="18" fill="#292d26" stroke="#f6f1e7" stroke-opacity="0.14"/>
      <text x="192" y="30" fill="#f7f1e7" font-family="Manrope, Inter, Arial, sans-serif" font-size="15" font-weight="700">Speed up</text>
      <text x="192" y="52" fill="#c9c1b4" font-family="Manrope, Inter, Arial, sans-serif" font-size="13">tighten the pace</text>
      <rect x="344" width="152" height="70" rx="18" fill="#292d26" stroke="#f6f1e7" stroke-opacity="0.14"/>
      <text x="364" y="30" fill="#f7f1e7" font-family="Manrope, Inter, Arial, sans-serif" font-size="15" font-weight="700">Reframe</text>
      <text x="364" y="52" fill="#c9c1b4" font-family="Manrope, Inter, Arial, sans-serif" font-size="13">make it clearer</text>
      <rect x="516" width="128" height="70" rx="18" fill="#292d26" stroke="#f6f1e7" stroke-opacity="0.14"/>
      <text x="536" y="30" fill="#f7f1e7" font-family="Manrope, Inter, Arial, sans-serif" font-size="15" font-weight="700">Re-test</text>
      <text x="536" y="52" fill="#c9c1b4" font-family="Manrope, Inter, Arial, sans-serif" font-size="13">compare again</text>
    </g>
  </g>

  <g transform="translate(842 160)">
    <rect width="350" height="96" rx="24" fill="#1d211b" stroke="#f6f1e7" stroke-opacity="0.12"/>
    <text x="26" y="38" fill="#f7f1e7" font-family="Manrope, Inter, Arial, sans-serif" font-size="20" font-weight="700">1. Find the dip</text>
    <text x="26" y="66" fill="#c9c1b4" font-family="Manrope, Inter, Arial, sans-serif" font-size="15">Click the curve and inspect that timestamp.</text>

    <rect y="122" width="350" height="96" rx="24" fill="#1d211b" stroke="#f6f1e7" stroke-opacity="0.12"/>
    <text x="26" y="160" fill="#f7f1e7" font-family="Manrope, Inter, Arial, sans-serif" font-size="20" font-weight="700">2. Compare nearby frames</text>
    <text x="26" y="188" fill="#c9c1b4" font-family="Manrope, Inter, Arial, sans-serif" font-size="15">Ask why the stronger part reads better.</text>

    <rect y="244" width="350" height="96" rx="24" fill="#1d211b" stroke="#f6f1e7" stroke-opacity="0.12"/>
    <text x="26" y="282" fill="#f7f1e7" font-family="Manrope, Inter, Arial, sans-serif" font-size="20" font-weight="700">3. Change one thing</text>
    <text x="26" y="310" fill="#c9c1b4" font-family="Manrope, Inter, Arial, sans-serif" font-size="15">Trim, speed up, move text, or change shot.</text>

    <rect y="366" width="350" height="96" rx="24" fill="#1d211b" stroke="#f6f1e7" stroke-opacity="0.12"/>
    <text x="26" y="404" fill="#f7f1e7" font-family="Manrope, Inter, Arial, sans-serif" font-size="20" font-weight="700">4. Run the next test</text>
    <text x="26" y="432" fill="#c9c1b4" font-family="Manrope, Inter, Arial, sans-serif" font-size="15">The graph decides if the edit improved.</text>
  </g>
</svg>
